<svg width="175" height="24" viewBox="0 0 175 24" fill="none" xmlns="http://www.w3.org/2000/svg">
<path d="M7.408 17.5L3.28 4.06H3.184C3.2 4.38 3.224 4.86 3.256 5.5C3.288 6.14 3.32 6.828 3.352 7.564C3.384 8.284 3.4 8.94 3.4 9.532V17.5H0.16V0.363999H5.104L9.16 13.468H9.232L13.528 0.363999H18.472V17.5H15.088V9.388C15.088 8.844 15.096 8.22 15.112 7.516C15.144 6.812 15.168 6.148 15.184 5.524C15.216 4.884 15.24 4.404 15.256 4.084H15.16L10.744 17.5H7.408ZM34.4166 10.924C34.4166 12.012 34.2646 12.98 33.9606 13.828C33.6726 14.676 33.2486 15.396 32.6886 15.988C32.1446 16.564 31.4806 17.004 30.6966 17.308C29.9126 17.596 29.0246 17.74 28.0326 17.74C27.1206 17.74 26.2726 17.596 25.4886 17.308C24.7206 17.004 24.0566 16.564 23.4966 15.988C22.9366 15.396 22.4966 14.676 22.1766 13.828C21.8726 12.98 21.7206 12.012 21.7206 10.924C21.7206 9.468 21.9766 8.244 22.4886 7.252C23.0006 6.244 23.7366 5.476 24.6966 4.948C25.6566 4.42 26.7926 4.156 28.1046 4.156C29.3366 4.156 30.4246 4.42 31.3686 4.948C32.3126 5.476 33.0566 6.244 33.6006 7.252C34.1446 8.244 34.4166 9.468 34.4166 10.924ZM25.3686 10.924C25.3686 11.788 25.4566 12.516 25.6326 13.108C25.8246 13.684 26.1206 14.124 26.5206 14.428C26.9206 14.716 27.4406 14.86 28.0806 14.86C28.7206 14.86 29.2326 14.716 29.6166 14.428C30.0166 14.124 30.3046 13.684 30.4806 13.108C30.6726 12.516 30.7686 11.788 30.7686 10.924C30.7686 10.06 30.6726 9.34 30.4806 8.764C30.3046 8.188 30.0166 7.756 29.6166 7.468C29.2166 7.18 28.6966 7.036 28.0566 7.036C27.1126 7.036 26.4246 7.364 25.9926 8.02C25.5766 8.66 25.3686 9.628 25.3686 10.924ZM40.948 4.396V9.436H45.94V4.396H49.516V17.5H45.94V12.1H40.948V17.5H37.372V4.396H40.948ZM64.8786 7.828C64.8786 8.532 64.6546 9.132 64.2066 9.628C63.7746 10.124 63.1266 10.444 62.2626 10.588V10.684C63.1746 10.796 63.9026 11.108 64.4466 11.62C65.0066 12.132 65.2866 12.788 65.2866 13.588C65.2866 14.148 65.1746 14.668 64.9506 15.148C64.7426 15.628 64.4066 16.044 63.9426 16.396C63.4786 16.748 62.8786 17.02 62.1426 17.212C61.4226 17.404 60.5426 17.5 59.5026 17.5H53.2626V4.396H59.5026C60.5266 4.396 61.4386 4.508 62.2386 4.732C63.0546 4.94 63.6946 5.292 64.1586 5.788C64.6386 6.284 64.8786 6.964 64.8786 7.828ZM61.5906 13.396C61.5906 12.884 61.3906 12.516 60.9906 12.292C60.5906 12.052 59.9906 11.932 59.1906 11.932H56.8386V15.028H59.2626C59.9346 15.028 60.4866 14.908 60.9186 14.668C61.3666 14.412 61.5906 13.988 61.5906 13.396ZM61.2546 8.116C61.2546 7.7 61.0946 7.396 60.7746 7.204C60.4546 7.012 59.9826 6.916 59.3586 6.916H56.8386V9.508H58.9506C59.7026 9.508 60.2706 9.404 60.6546 9.196C61.0546 8.972 61.2546 8.612 61.2546 8.116ZM73.7564 4.156C74.9724 4.156 76.0124 4.388 76.8764 4.852C77.7564 5.316 78.4364 5.988 78.9164 6.868C79.3964 7.748 79.6364 8.828 79.6364 10.108V11.836H71.1884C71.2204 12.844 71.5164 13.636 72.0764 14.212C72.6524 14.788 73.4444 15.076 74.4524 15.076C75.3004 15.076 76.0684 14.996 76.7564 14.836C77.4444 14.66 78.1564 14.396 78.8924 14.044V16.804C78.2524 17.124 77.5724 17.356 76.8524 17.5C76.1484 17.66 75.2924 17.74 74.2844 17.74C72.9724 17.74 71.8124 17.5 70.8044 17.02C69.7964 16.524 69.0044 15.78 68.4284 14.788C67.8524 13.796 67.5644 12.548 67.5644 11.044C67.5644 9.508 67.8204 8.236 68.3324 7.228C68.8604 6.204 69.5884 5.436 70.5164 4.924C71.4444 4.412 72.5244 4.156 73.7564 4.156ZM73.7804 6.7C73.0924 6.7 72.5164 6.924 72.0524 7.372C71.6044 7.82 71.3404 8.516 71.2604 9.46H76.2764C76.2764 8.932 76.1804 8.46 75.9884 8.044C75.8124 7.628 75.5404 7.3 75.1724 7.06C74.8044 6.82 74.3404 6.7 73.7804 6.7ZM89.8321 4.156C91.3041 4.156 92.4961 4.732 93.4081 5.884C94.3201 7.02 94.7761 8.7 94.7761 10.924C94.7761 12.412 94.5601 13.668 94.1281 14.692C93.6961 15.7 93.1041 16.46 92.3521 16.972C91.6001 17.484 90.7281 17.74 89.7361 17.74C89.1121 17.74 88.5681 17.66 88.1041 17.5C87.6561 17.34 87.2721 17.132 86.9521 16.876C86.6321 16.62 86.3521 16.348 86.1121 16.06H85.9201C85.9841 16.364 86.0321 16.684 86.0641 17.02C86.0961 17.34 86.1121 17.66 86.1121 17.98V23.26H82.5361V4.396H85.4401L85.9441 6.1H86.1121C86.3521 5.748 86.6401 5.428 86.9761 5.14C87.3121 4.836 87.7121 4.596 88.1761 4.42C88.6561 4.244 89.2081 4.156 89.8321 4.156ZM88.6801 7.012C88.0561 7.012 87.5601 7.14 87.1921 7.396C86.8241 7.652 86.5521 8.044 86.3761 8.572C86.2161 9.084 86.1281 9.732 86.1121 10.516V10.9C86.1121 11.748 86.1921 12.468 86.3521 13.06C86.5121 13.636 86.7841 14.076 87.1681 14.38C87.5521 14.684 88.0721 14.836 88.7281 14.836C89.2721 14.836 89.7201 14.684 90.0721 14.38C90.4241 14.076 90.6881 13.628 90.8641 13.036C91.0401 12.444 91.1281 11.724 91.1281 10.876C91.1281 9.596 90.9281 8.636 90.5281 7.996C90.1441 7.34 89.5281 7.012 88.6801 7.012ZM103.052 17.74C101.756 17.74 100.652 17.508 99.7396 17.044C98.8276 16.564 98.1316 15.828 97.6516 14.836C97.1716 13.844 96.9316 12.572 96.9316 11.02C96.9316 9.42 97.2036 8.116 97.7476 7.108C98.2916 6.1 99.0436 5.356 100.004 4.876C100.98 4.396 102.1 4.156 103.364 4.156C104.26 4.156 105.036 4.244 105.692 4.42C106.364 4.596 106.948 4.804 107.444 5.044L106.388 7.804C105.828 7.58 105.3 7.396 104.804 7.252C104.324 7.108 103.844 7.036 103.364 7.036C102.74 7.036 102.22 7.188 101.804 7.492C101.388 7.78 101.076 8.22 100.868 8.812C100.676 9.388 100.58 10.116 100.58 10.996C100.58 11.86 100.684 12.58 100.892 13.156C101.116 13.716 101.436 14.14 101.852 14.428C102.268 14.7 102.772 14.836 103.364 14.836C104.116 14.836 104.78 14.74 105.356 14.548C105.932 14.34 106.492 14.06 107.036 13.708V16.756C106.492 17.108 105.916 17.356 105.308 17.5C104.716 17.66 103.964 17.74 103.052 17.74ZM115.476 10.06V12.772H109.092V10.06H115.476ZM129.031 17.5L127.783 13.42H121.543L120.295 17.5H116.383L122.431 0.292H126.871L132.943 17.5H129.031ZM125.671 6.388C125.591 6.116 125.487 5.772 125.359 5.356C125.231 4.94 125.103 4.516 124.975 4.084C124.847 3.652 124.743 3.276 124.663 2.956C124.583 3.276 124.471 3.676 124.327 4.156C124.199 4.62 124.071 5.068 123.943 5.5C123.831 5.916 123.743 6.212 123.679 6.388L122.455 10.372H126.919L125.671 6.388ZM146.441 7.828C146.441 8.532 146.217 9.132 145.769 9.628C145.337 10.124 144.689 10.444 143.825 10.588V10.684C144.737 10.796 145.465 11.108 146.009 11.62C146.569 12.132 146.849 12.788 146.849 13.588C146.849 14.148 146.737 14.668 146.513 15.148C146.305 15.628 145.969 16.044 145.505 16.396C145.041 16.748 144.441 17.02 143.705 17.212C142.985 17.404 142.105 17.5 141.065 17.5H134.825V4.396H141.065C142.089 4.396 143.001 4.508 143.801 4.732C144.617 4.94 145.257 5.292 145.721 5.788C146.201 6.284 146.441 6.964 146.441 7.828ZM143.153 13.396C143.153 12.884 142.953 12.516 142.553 12.292C142.153 12.052 141.553 11.932 140.753 11.932H138.401V15.028H140.825C141.497 15.028 142.049 14.908 142.481 14.668C142.929 14.412 143.153 13.988 143.153 13.396ZM142.817 8.116C142.817 7.7 142.657 7.396 142.337 7.204C142.017 7.012 141.545 6.916 140.921 6.916H138.401V9.508H140.513C141.265 9.508 141.833 9.404 142.217 9.196C142.617 8.972 142.817 8.612 142.817 8.116ZM160.767 7.084H156.471V17.5H152.895V7.084H148.599V4.396H160.767V7.084ZM174.854 10.924C174.854 12.012 174.702 12.98 174.398 13.828C174.11 14.676 173.686 15.396 173.126 15.988C172.582 16.564 171.918 17.004 171.134 17.308C170.35 17.596 169.462 17.74 168.47 17.74C167.558 17.74 166.71 17.596 165.926 17.308C165.158 17.004 164.494 16.564 163.934 15.988C163.374 15.396 162.934 14.676 162.614 13.828C162.31 12.98 162.158 12.012 162.158 10.924C162.158 9.468 162.414 8.244 162.926 7.252C163.438 6.244 164.174 5.476 165.134 4.948C166.094 4.42 167.23 4.156 168.542 4.156C169.774 4.156 170.862 4.42 171.806 4.948C172.75 5.476 173.494 6.244 174.038 7.252C174.582 8.244 174.854 9.468 174.854 10.924ZM165.806 10.924C165.806 11.788 165.894 12.516 166.07 13.108C166.262 13.684 166.558 14.124 166.958 14.428C167.358 14.716 167.878 14.86 168.518 14.86C169.158 14.86 169.67 14.716 170.054 14.428C170.454 14.124 170.742 13.684 170.918 13.108C171.11 12.516 171.206 11.788 171.206 10.924C171.206 10.06 171.11 9.34 170.918 8.764C170.742 8.188 170.454 7.756 170.054 7.468C169.654 7.18 169.134 7.036 168.494 7.036C167.55 7.036 166.862 7.364 166.43 8.02C166.014 8.66 165.806 9.628 165.806 10.924Z" fill="#2A609D"/>
</svg>
