<?xml version="1.0" encoding="utf-8"?>
<!-- Generator: Adobe Illustrator 27.0.0, SVG Export Plug-In . SVG Version: 6.00 Build 0)  -->
<svg version="1.1" id="Слой_1" xmlns="http://www.w3.org/2000/svg" xmlns:xlink="http://www.w3.org/1999/xlink" x="0px" y="0px"
	 viewBox="0 0 84.61 48.32" style="enable-background:new 0 0 84.61 48.32;" xml:space="preserve">
<style type="text/css">
	.st0{fill:#2A609D;}
</style>
<path class="st0" d="M27.87,3.49c0.47-1.54,1.55-2.33,2.83-2.71c1.39-0.41,2.85-0.78,4.29-0.78c3.66,0.01,7.34,0.11,10.99,0.44
	c2.61,0.24,3.7,1.67,3.69,4.33c-0.03,4.59-0.18,9.19-0.2,13.78c0,1.06,0.2,2.17,0.53,3.19c0.54,1.69,1.78,2.06,3.05,0.83
	c1.37-1.33,2.62-2.81,3.73-4.36c2.89-4.07,5.16-8.48,7.02-13.11c1.06-2.65,1.5-2.94,4.37-2.94c4.51,0,9.03-0.03,13.54,0
	c2.46,0.02,3.5,1.29,2.58,3.54c-0.96,2.34-2.12,4.64-3.54,6.72c-2.68,3.93-5.65,7.66-8.41,11.55c-2.21,3.11-2.11,3.94,0.54,6.7
	c2.69,2.8,5.51,5.48,8.14,8.34c1.18,1.27,2.16,2.77,3.01,4.29c1.22,2.18,0.5,3.81-1.89,4.53c-0.87,0.26-1.8,0.38-2.71,0.39
	c-3.18,0.06-6.36-0.09-9.53,0.08c-3.36,0.18-6.02-1.12-8.27-3.42c-1.75-1.79-3.37-3.71-5.11-5.51c-0.66-0.68-1.42-1.3-2.24-1.79
	c-1.25-0.75-2.16-0.5-3.06,0.65c-1.19,1.53-1.32,3.38-1.54,5.2c-0.04,0.33-0.01,0.67-0.03,1c-0.14,2.53-1.32,3.64-3.85,3.8
	c-11.82,0.74-21.21-3.79-28.44-13.06C10.85,26.82,5.88,17.57,1.39,8.02C0.98,7.16,0.57,6.29,0.24,5.38
	c-0.66-1.83,0.02-3.1,1.92-3.18c4.13-0.17,8.27-0.23,12.41-0.2c1.88,0.02,3.1,1.15,3.81,2.94c2.18,5.46,5.05,10.55,8.49,15.3
	c0.77,1.06,1.76,2.02,2.81,2.81c1.07,0.81,2.07,0.48,2.46-0.8c0.47-1.54,0.93-3.16,0.95-4.75c0.03-3.2-0.19-6.41-0.4-9.61
	c-0.15-2.27-1.6-3.47-3.7-4.02C28.64,3.79,28.3,3.64,27.87,3.49z"/>
</svg>
